<svg xmlns="http://www.w3.org/2000/svg" width="295" height="100" viewBox="0 0 295 100">
    <defs>
        <linearGradient id="prefix__a" x1="49.916%" x2="50.164%" y1="20.37%" y2="103.671%">
            <stop offset="15%" stop-color="#06C"/>
            <stop offset="100%" stop-color="#05C3DD"/>
        </linearGradient>
        <linearGradient id="prefix__b" x1="49.999%" x2="49.99%" y1="20.35%" y2="103.631%">
            <stop offset="0%" stop-color="#05C3DD"/>
            <stop offset="85%" stop-color="#06C"/>
        </linearGradient>
    </defs>
    <g fill="none">
        <path fill="#2E2E2E" d="M117.57 49.86c-2.042-1.02-4.307-1.51-6.587-1.422-7.272 0-11.726 4.296-11.726 11.343-.037 3.101 1.198 6.08 3.416 8.24 2.217 2.16 5.222 3.311 8.31 3.182 3.617.132 7.165-1.024 10.013-3.266l4.282 5.235c-3.94 3.578-8.813 4.953-14.809 4.953-9.841 0-18.92-6.61-18.92-18.469 0-11.328 8.565-18.203 19.014-18.203 5.022-.113 9.943 1.423 14.015 4.375v9.703h-7.008V49.86zM148.076 41.453c10.051.326 17.964 8.717 17.732 18.805-.232 10.088-8.522 18.104-18.577 17.965-10.056-.14-18.121-8.383-18.075-18.473.052-4.956 2.085-9.684 5.642-13.124 3.556-3.44 8.34-5.303 13.278-5.173zm0 29.688c3.014.088 5.929-1.08 8.053-3.226 2.125-2.146 3.268-5.08 3.16-8.103 0-6.213-5.02-11.25-11.213-11.25-6.192 0-11.212 5.037-11.212 11.25-.134 3.025 1.004 5.966 3.136 8.108 2.132 2.142 5.062 3.288 8.076 3.158v.063zM208.668 21.781v55.313h-7.32l-.342-3.953c-2.945 3.315-7.209 5.142-11.632 4.984-10.62 0-17.893-7.563-17.893-18.375 0-10.313 7.35-18.297 17.8-18.297 4.453 0 8.907 1.281 11.725 4.89V28.392h-5.995v-6.61h13.657zm-18.485 26.563c-6.509 0-11.056 4.453-11.056 11.328 0 6.875 4.672 11.594 11.056 11.594 7.522 0 11.119-5.75 11.119-11.5.047-6.125-3.535-11.438-11.072-11.438l-.047.016zM249.155 73.063c-3.581 3.609-8.813 5.062-14.637 5.062-11.119 0-19.341-7.125-19.341-18.469 0-11.843 8.814-18.203 18.313-18.203 9.857 0 17.892 6.016 17.892 18.203-.002 1.047-.086 2.092-.249 3.125h-27.92c1.105 5.922 6.228 8.5 11.725 8.5 3.693.014 7.281-1.225 10.184-3.515l4.033 5.296zm-26.036-16.5h20.462c-.514-4.985-4.19-8.329-10.013-8.329-5.074-.253-9.548 3.312-10.45 8.328zM255.384 42.39h7.023v-8.25c0-9.015 5.388-12.796 13.097-12.796 2.253-.038 4.491.371 6.587 1.203l-1.558 6.25c-1.266-.552-2.637-.819-4.017-.781-4.547 0-6.338 2.5-6.338 6.359v7.984H280.3v6.61h-10.262v28.125h-7.709V48.969h-6.945V42.39z" transform="translate(4.333)"/>
        <path fill="url(#prefix__a)" d="M30.396 1.44c6.886-.012 12.477 5.56 12.49 12.446v.043l-.057 32.975c-.011 6.916-5.615 12.52-12.531 12.531-6.886.012-12.477-5.56-12.489-12.446v-.043l.056-32.975C17.877 7.055 23.48 1.45 30.396 1.44z" transform="translate(4.333) rotate(135 30.347 30.438)"/>
        <path fill="#05C3DD" d="M27.532 9.906L50.89 33.344c.591.6 1.113 1.266 1.557 1.984C55.87 40.298 55.26 47.013 51 51.281L27.719 74.72c-4.92 4.901-12.868 4.873-17.753-.063s-4.857-12.91.063-17.812L24.51 42.312s18.313-16.359 3.02-32.406z" transform="translate(4.333)"/>
        <path fill="url(#prefix__b)" d="M50.27 40.124c6.885-.011 12.476 5.561 12.488 12.447v.042l-.056 32.976c-.012 6.916-5.615 12.52-12.531 12.531-6.886.012-12.477-5.56-12.489-12.447v-.042l.056-32.975c.012-6.916 5.615-12.52 12.531-12.532z" transform="translate(4.333) rotate(-45 50.22 69.122)"/>
        <path fill="#06C" d="M53.023 89.656L29.743 66.22c-.587-.605-1.109-1.27-1.557-1.985-3.348-4.927-2.761-11.54 1.401-15.796L52.946 25c4.876-4.871 12.765-4.854 17.62.04 4.854 4.892 4.837 12.807-.04 17.679L56.06 57.25s-18.329 16.36-3.037 32.406z" transform="translate(4.333)"/>
        <path fill="#00379C" d="M52.416 35.25c-.444-.718-.966-1.383-1.557-1.984l-3.115-3.125-18.157 18.297c-4.261 4.267-4.87 10.982-1.448 15.953.449.714.97 1.379 1.557 1.984l3.115 3.125 18.157-18.297c4.261-4.268 4.87-10.983 1.448-15.953z" transform="translate(4.333)"/>
    </g>
</svg>
