<svg xmlns="http://www.w3.org/2000/svg" width="118" height="40" viewBox="0 0 118 40">
    <g fill="none">
        <path fill="#FFF" d="M45.094 17.444c-.816-.408-1.72-.604-2.63-.569-2.906 0-4.684 1.719-4.684 4.537-.015 1.24.478 2.433 1.364 3.297.886.864 2.086 1.324 3.32 1.272 1.444.053 2.86-.41 3.998-1.306l1.711 2.094c-1.574 1.431-3.52 1.981-5.915 1.981-3.931 0-7.557-2.644-7.557-7.388 0-4.537 3.42-7.28 7.594-7.28 2.006-.046 3.972.568 5.598 1.75v3.88h-2.799v-2.268zM57.279 14.081c4.015.13 7.175 3.487 7.082 7.522-.092 4.035-3.403 7.242-7.42 7.186-4.016-.056-7.238-3.353-7.22-7.389.022-1.983.834-3.874 2.254-5.25 1.42-1.375 3.331-2.12 5.304-2.069zm0 11.875c1.203.036 2.368-.431 3.216-1.29.849-.859 1.306-2.032 1.262-3.241 0-2.485-2.005-4.5-4.478-4.5s-4.478 2.015-4.478 4.5c-.054 1.21.4 2.386 1.252 3.243.852.857 2.022 1.315 3.226 1.263v.025zM81.48 6.212v22.125h-2.923l-.137-1.58c-1.176 1.326-2.88 2.056-4.646 1.993-4.242 0-7.147-3.025-7.147-7.35 0-4.125 2.936-7.319 7.11-7.319 1.779 0 3.557.513 4.683 1.956v-7.18h-2.394V6.211h5.454zm-7.383 10.625c-2.6 0-4.416 1.788-4.416 4.538s1.866 4.637 4.416 4.637c3.005 0 4.441-2.3 4.441-4.6.02-2.456-1.411-4.587-4.422-4.587l-.019.012zM97.652 26.725c-1.43 1.444-3.52 2.025-5.847 2.025-4.44 0-7.725-2.85-7.725-7.388 0-4.737 3.52-7.28 7.315-7.28 3.937 0 7.147 2.405 7.147 7.28-.002.42-.035.837-.1 1.25H87.29c.441 2.37 2.488 3.4 4.683 3.4 1.475.006 2.909-.49 4.068-1.406l1.611 2.119zm-10.4-6.6h8.173c-.205-1.994-1.673-3.331-3.999-3.331-2.027-.102-3.813 1.324-4.174 3.331zM100.14 14.456h2.805v-3.3c0-3.606 2.152-5.119 5.231-5.119.9-.015 1.794.149 2.631.482l-.622 2.5c-.506-.221-1.053-.328-1.605-.313-1.816 0-2.531 1-2.531 2.544v3.194h4.043v2.643h-4.099v11.25h-3.079v-11.25h-2.774v-2.63z" transform="translate(3.461 2.609)"/>
        <path fill="#05C3DD" d="M19.07 11.6c-.177-.287-.386-.553-.622-.794L9.33 1.656V1.7l-.193-.219C8.203.54 6.934.01 5.61.01c-1.323 0-2.593.53-3.526 1.472C1.145 2.42.618 3.695.618 5.025s.527 2.605 1.466 3.544l5.846 5.875-5.784 5.812c-1.943 1.956-1.94 5.123.006 7.075s5.098 1.95 7.041-.006l9.33-9.344c1.692-1.715 1.922-4.4.547-6.381zM8.248 14.1c-.106.206-.218.319-.324.312 0 .013.125-.1.324-.3V14.1zm9.79 3.437l-9.28 9.338c-1.706 1.714-4.471 1.714-6.177 0-1.705-1.714-1.705-4.492 0-6.206l5.772-5.8c.286-.257 3.664-3.407 3.826-7.563.03-.708-.036-1.417-.2-2.106l6.009 6.05c.215.212.407.447.572.7 1.194 1.744.974 4.097-.522 5.587z" transform="translate(3.461 2.609)"/>
        <path fill="#00AEEB" d="M9.13 1.462l.194.194c-.05-.119-.119-.187-.193-.194z" transform="translate(3.461 2.609)"/>
        <path fill="#06C" d="M26.366 26.25l-5.84-5.85 5.784-5.813c1.26-1.261 1.754-3.102 1.297-4.83-.457-1.727-1.797-3.078-3.514-3.543-1.717-.466-3.551.024-4.811 1.286l-9.33 9.375c-1.702 1.707-1.946 4.393-.579 6.381.18.286.388.552.622.794l9.33 9.375c1.972 1.954 5.147 1.931 7.09-.05 1.945-1.981 1.923-5.171-.049-7.125zm-.435 6.644c-.818.826-1.93 1.29-3.088 1.29-1.16 0-2.271-.464-3.089-1.29l-2.295-2.269c-1.866-4.45 1.387-8.481 2.619-9.781l5.853 5.881c.818.82 1.278 1.935 1.278 3.097s-.46 2.276-1.278 3.097v-.025z" transform="translate(3.461 2.609)"/>
    </g>
</svg>
