<svg xmlns="http://www.w3.org/2000/svg" viewBox="0 0 129.03 55.72"><defs><style>.cls-1{fill:#05c3dd;}.cls-2{fill:#2e2e2e;}</style></defs><title>자산 44</title><g id="레이어_2" data-name="레이어 2"><g id="로고_웹_RGB_용" data-name="로고_웹(RGB)용"><path class="cls-1" d="M128.69,15.05a1.34,1.34,0,0,0-2.49-.48c0,.07-4,6.91-6.65,9.79-2.36,2.61-6.53,4-8.57,2.94a38.08,38.08,0,0,1-3.89-4.55c-1.09-1.38-2.33-2.93-3.69-4.58a25.15,25.15,0,0,0,2.54-5.05,21.74,21.74,0,0,0,1.12-6.81,1.35,1.35,0,0,0-1.74-1.25L100,6.65a22.73,22.73,0,0,0-.39-5.59A1.33,1.33,0,0,0,99,.17a1.36,1.36,0,0,0-1.1-.1c-.34.12-8.46,3-11.6,8.56A1.34,1.34,0,0,0,88.63,10c1.91-3.37,6.29-5.68,8.62-6.71A19.38,19.38,0,0,1,97,9.1a21.68,21.68,0,0,1-3.09,7,1.35,1.35,0,0,0,2.19,1.57,22.06,22.06,0,0,0,1.33-2.19c1,1.13,2.12,2.35,3.25,3.7,1.61,1.9,3,3.69,4.28,5.28,2.59,3.26,3.77,4.72,4.72,5.24,3.5,1.87,9-.3,11.85-3.5a55.08,55.08,0,0,0,4.77-6.63,41.55,41.55,0,0,1-.94,9.87A25.39,25.39,0,0,1,119,41a1.38,1.38,0,0,0-.42,1.09,17.41,17.41,0,0,1-.15,4.07c-.42,2.06-1.08,3.52-3,4a6,6,0,0,1-2.14,0,28.1,28.1,0,0,1-5.65-1.59,1.36,1.36,0,0,0-1.76.75,1.35,1.35,0,0,0,.75,1.75,36.25,36.25,0,0,0,3.45,1.15,8.57,8.57,0,0,1-5,.76c-3.82-.44-6-2-8.41-3.91-1-.73-2-1.49-3.13-2.22-4.14-2.6-8.25-3-13.33-1.37A1.35,1.35,0,1,0,81.07,48c4.31-1.4,7.61-1.08,11.06,1.09,1.06.67,2,1.39,3,2.09,2.54,1.93,5.17,3.92,9.73,4.44a13.92,13.92,0,0,0,1.54.09,10,10,0,0,0,7.29-2.84c.32,0,.63,0,.91,0a6.7,6.7,0,0,0,1.49-.15c4-.92,4.71-4.66,5-6.06a18.9,18.9,0,0,0,.24-4.19A28,28,0,0,0,128,30,44.66,44.66,0,0,0,128.69,15.05Zm-29-5.38s0-.07,0-.1l4.59-1.37a19.71,19.71,0,0,1-.87,4.07A20.79,20.79,0,0,1,101.57,16c-1-1.15-1.95-2.2-2.89-3.19A19.34,19.34,0,0,0,99.65,9.67Z"/><path class="cls-2" d="M10.36,12.28a5.44,5.44,0,0,0-2.62-.58c-2.9,0-4.67,1.71-4.67,4.5a4.48,4.48,0,0,0,4.67,4.54,6.08,6.08,0,0,0,4-1.3l1.71,2.08a8.28,8.28,0,0,1-5.9,2C3.61,23.5,0,20.87,0,16.17c0-4.5,3.41-7.23,7.57-7.23a9.23,9.23,0,0,1,5.59,1.74v3.85h-2.8Z"/><path class="cls-2" d="M22.5,8.94a7.3,7.3,0,1,1,0,14.59,7.3,7.3,0,1,1,0-14.59Zm0,11.76A4.36,4.36,0,0,0,27,16.2a4.27,4.27,0,0,0-4.47-4.46A4.27,4.27,0,0,0,18,16.2,4.28,4.28,0,0,0,22.5,20.7Z"/><path class="cls-2" d="M46.64,1.14v22H43.71l-.13-1.57a6,6,0,0,1-4.64,2c-4.22,0-7.12-3-7.12-7.3a7,7,0,0,1,7.09-7.26,5.74,5.74,0,0,1,4.67,2V3.76H41.19V1.14ZM39.28,11.67a4.21,4.21,0,0,0-4.39,4.5,4.41,4.41,0,1,0,8.82,0A4.2,4.2,0,0,0,39.28,11.67Z"/><path class="cls-2" d="M62.74,21.49a8,8,0,0,1-5.83,2c-4.43,0-7.7-2.83-7.7-7.33A7,7,0,0,1,56.5,8.94c3.92,0,7.13,2.39,7.13,7.23a9.37,9.37,0,0,1-.1,1.23H52.41c.45,2.35,2.49,3.37,4.67,3.37a6.51,6.51,0,0,0,4.06-1.4ZM52.38,14.94h8.15a3.65,3.65,0,0,0-4-3.3A4,4,0,0,0,52.38,14.94Z"/><path class="cls-1" d="M65.19,9.32H68V6.05C68,2.47,70.14,1,73.2,1a6.78,6.78,0,0,1,2.63.48l-.65,2.48a3.81,3.81,0,0,0-1.6-.3,2.23,2.23,0,0,0-2.52,2.52V9.32h4.09v2.62H71.06V23.09H68V11.94h-2.8Z"/><path class="cls-1" d="M37.34,29.94h6.54L49,46.35h1.94V49H46.7L45,43.29H38.8L37.14,49H32.9V46.35h1.93l4.31-13.84h-1.8Zm2.17,10.81h4.75l-2.34-8.3Z"/><path class="cls-1" d="M56.33,49H53.21V32.55h-2V29.94H58.4c4.67,0,6.71,2.13,6.71,5.49,0,3.73-2.44,5.8-6.48,5.8h-2.3ZM58.4,38.58c2.5,0,3.59-1.35,3.59-3.18s-1.15-2.85-3.63-2.85h-2v6Z"/><path class="cls-1" d="M71.14,46.38h2.21V49H65.82V46.38H68V32.55H65.82V29.94h7.53v2.61H71.14Z"/></g></g></svg>