<svg xmlns="http://www.w3.org/2000/svg" viewBox="0 0 52 52"><defs><style>.cls-1{fill:#05c3dd;}.cls-2{fill:#fff;}</style></defs><title>자산 47</title><g id="레이어_2" data-name="레이어 2"><g id="로고_웹_RGB_용" data-name="로고_웹(RGB)용"><circle class="cls-1" cx="26" cy="26" r="26"/><path class="cls-2" d="M9.79,40.4a8.59,8.59,0,0,1,6.59,1.25c.79.5,1.51,1.05,2.2,1.57a13.76,13.76,0,0,0,7.3,3.33c.4,0,.79.06,1.16.06a7.52,7.52,0,0,0,5.46-2.13c.24,0,.47,0,.69,0a4.72,4.72,0,0,0,1.11-.12c3-.69,3.52-3.48,3.73-4.53a14.51,14.51,0,0,0,.18-3.14,21.11,21.11,0,0,0,5.06-9.39,33.82,33.82,0,0,0,.51-11.21,1,1,0,0,0-1.86-.36,59.47,59.47,0,0,1-5,7.35c-1.77,1.95-4.9,3-6.44,2.2a28.45,28.45,0,0,1-2.91-3.4c-.83-1.05-1.76-2.21-2.78-3.45a19.51,19.51,0,0,0,1.91-3.79,16.1,16.1,0,0,0,.83-5.1,1,1,0,0,0-.41-.78,1,1,0,0,0-.88-.15l-4,1.19A17.29,17.29,0,0,0,22,5.64,1,1,0,0,0,21.51,5a1,1,0,0,0-.81-.07,21.48,21.48,0,0,0-6.23,3.53A23.76,23.76,0,0,0,9.63,5.8c-.59.49-1.16,1-1.71,1.52.19.06.38.11.57.18A20.84,20.84,0,0,1,13,9.87a8.61,8.61,0,0,0-1,1.45,1,1,0,1,0,1.74,1C15.17,9.76,18.47,8,20.22,7.25A14.58,14.58,0,0,1,20,11.67a16.09,16.09,0,0,1-2.31,5.23A1,1,0,0,0,18,18.29a1,1,0,0,0,.58.19,1,1,0,0,0,.81-.42,15.42,15.42,0,0,0,1-1.65c.79.86,1.6,1.77,2.45,2.78,1.2,1.43,2.27,2.78,3.21,4,1.93,2.44,2.82,3.54,3.53,3.92,2.62,1.4,6.7-.22,8.87-2.62a40.61,40.61,0,0,0,3.59-5,31.21,31.21,0,0,1-.69,7.43,19.17,19.17,0,0,1-4.82,8.71,1,1,0,0,0-.31.81,14,14,0,0,1-.12,3c-.31,1.55-.81,2.65-2.23,3a4.51,4.51,0,0,1-1.6,0A21.77,21.77,0,0,1,28,41.25a1,1,0,0,0-.74,1.86,24.86,24.86,0,0,0,2.61.86,6.43,6.43,0,0,1-3.75.59c-2.88-.33-4.47-1.54-6.32-2.93A28.44,28.44,0,0,0,17.44,40a10.71,10.71,0,0,0-9-1.3H8.35l-.07,0-.83.23a3.91,3.91,0,0,1-4.11-.84.91.91,0,0,0-.51-.29A26.64,26.64,0,0,0,4.8,41a6.17,6.17,0,0,0,3-.14ZM21.27,14.45A14.49,14.49,0,0,0,22,12.09S22,12,22,12l3.47-1A14.86,14.86,0,0,1,24.82,14a15.08,15.08,0,0,1-1.37,2.82C22.7,16,22,15.21,21.27,14.45Z"/></g></g></svg>