<svg xmlns="http://www.w3.org/2000/svg" width="175" height="88" viewBox="0 0 175 88">
    <g fill="none" fill-rule="evenodd">
        <g fill-rule="nonzero">
            <g>
                <g>
                    <path fill="#05C3DD" d="M173.237 21.493c-.107-.76-.688-1.368-1.445-1.513-.758-.145-1.524.204-1.907.87 0 .094-5.385 9.254-8.952 13.11-3.177 3.495-8.79 5.357-11.537 3.937-1.903-1.89-3.654-3.928-5.236-6.093-1.468-1.848-3.137-3.923-4.968-6.133 1.392-2.12 2.539-4.388 3.42-6.762.987-2.941 1.496-6.02 1.507-9.12-.017-.562-.297-1.084-.756-1.412-.459-.328-1.045-.425-1.586-.262l-7.162 2.13c.136-2.508-.04-5.022-.525-7.486-.092-.495-.39-.928-.82-1.192-.453-.251-.991-.3-1.482-.134-.457.16-11.388 4.017-15.615 11.463-.51.861-.22 1.97.646 2.477.866.507 1.981.219 2.49-.643 2.572-4.512 8.468-7.606 11.604-8.985.282 2.595.169 5.218-.336 7.78-.817 3.345-2.225 6.52-4.16 9.374-.508.81-.297 1.872.482 2.428.78.556 1.86.413 2.466-.325.654-.943 1.252-1.922 1.79-2.933 1.347 1.513 2.855 3.147 4.376 4.955 2.167 2.544 4.038 4.941 5.761 7.07 3.487 4.366 5.075 6.321 6.354 7.017 4.712 2.504 12.116-.401 15.952-4.687 2.358-2.797 4.505-5.765 6.421-8.878.11 4.44-.315 8.877-1.265 13.217-1.433 5.82-4.386 11.161-8.562 15.48-.396.38-.603.914-.565 1.46.147 1.818.08 3.648-.202 5.45-.565 2.759-1.454 4.714-4.038 5.357-.953.172-1.929.172-2.881 0-2.603-.444-5.152-1.157-7.606-2.13-.933-.367-1.99.08-2.37 1.005-.368.924.083 1.972 1.01 2.344 1.522.59 3.072 1.104 4.645 1.54-2.09 1.005-4.436 1.36-6.731 1.017-5.142-.589-8.077-2.678-11.321-5.236-1.346-.977-2.693-1.995-4.214-2.973-5.573-3.481-11.106-4.017-17.944-1.834-.712.116-1.288.64-1.467 1.336-.178.696.074 1.43.643 1.873.569.442 1.347.507 1.982.165 5.802-1.874 10.244-1.446 14.888 1.46 1.427.897 2.692 1.861 4.039 2.799 3.419 2.584 6.96 5.25 13.098 5.946.688.078 1.38.118 2.073.12 3.654.11 7.197-1.262 9.813-3.803h1.225c.674.008 1.347-.06 2.006-.2 5.385-1.233 6.34-6.241 6.73-8.116.318-1.853.426-3.735.324-5.611 4.38-4.71 7.471-10.46 8.979-16.699 1.44-6.574 1.753-13.342.929-20.02zm-39.039-7.204v-.134l6.179-1.835c-.196 1.853-.589 3.68-1.171 5.45-.656 1.743-1.486 3.417-2.477 4.995-1.346-1.54-2.625-2.946-3.89-4.272.554-1.362.99-2.769 1.305-4.204h.054z" transform="translate(-873 -331) translate(873 331) translate(0 5.74)"/>
                    <path fill="#2E2E2E" d="M13.946 17.784c-1.092-.548-2.304-.815-3.527-.777-3.904 0-6.286 2.29-6.286 6.026-.024 1.65.637 3.237 1.826 4.387 1.19 1.15 2.803 1.763 4.46 1.693 1.946.075 3.855-.542 5.385-1.741l2.302 2.785c-2.196 1.887-5.046 2.848-7.943 2.678C4.86 32.81 0 29.287 0 22.993c0-6.026 4.59-9.682 10.19-9.682 2.696-.056 5.338.762 7.525 2.33v5.156h-3.769v-3.013zM30.288 13.311c3.596-.132 6.976 1.7 8.813 4.777 1.837 3.077 1.837 6.907 0 9.984s-5.217 4.91-8.813 4.777c-3.595.132-6.975-1.7-8.812-4.777-1.837-3.077-1.837-6.907 0-9.984s5.217-4.91 8.812-4.777zm0 15.748c1.623.053 3.194-.565 4.342-1.707 1.148-1.142 1.77-2.705 1.716-4.319.074-1.608-.537-3.172-1.682-4.309s-2.72-1.74-4.335-1.663c-1.63-.101-3.226.492-4.39 1.632-1.163 1.14-1.784 2.718-1.708 4.34-.086 1.623.524 3.206 1.68 4.355 1.155 1.15 2.746 1.757 4.377 1.671zM62.785 2.866v29.46H58.84l-.175-2.102c-1.584 1.764-3.869 2.744-6.246 2.678-5.68 0-9.584-4.017-9.584-9.775-.097-2.567.87-5.06 2.675-6.899 1.804-1.837 4.287-2.858 6.869-2.823 2.4-.129 4.724.861 6.286 2.678V6.374h-3.217V2.866h7.337zm-9.908 14.1c-1.615-.072-3.184.545-4.313 1.696-1.129 1.151-1.71 2.727-1.597 4.33 0 2.11 1.132 4.06 2.969 5.115 1.836 1.055 4.1 1.055 5.936 0 1.837-1.055 2.968-3.004 2.968-5.114.12-1.615-.467-3.203-1.61-4.357-1.141-1.154-2.728-1.762-4.353-1.67zM84.458 30.117c-2.152 1.9-4.978 2.864-7.848 2.678-5.964 0-10.366-3.79-10.366-9.816-.084-2.605.925-5.128 2.787-6.963 1.862-1.834 4.408-2.814 7.027-2.705 5.277 0 9.598 3.2 9.598 9.682-.009.551-.054 1.101-.135 1.647h-14.97c.607 3.147 3.353 4.513 6.287 4.513 1.983.008 3.91-.653 5.466-1.875l2.154 2.839zm-13.946-8.771h10.97c-.118-1.299-.754-2.496-1.766-3.326-1.01-.83-2.314-1.224-3.618-1.093-2.717-.143-5.114 1.753-5.586 4.419z" transform="translate(-873 -331) translate(873 331) translate(0 5.74)"/>
                    <path fill="#05C3DD" d="M87.756 13.82h3.782V9.44c0-4.793 2.881-6.762 7-6.762 1.212-.021 2.415.197 3.54.643l-.874 3.321c-.68-.287-1.415-.424-2.154-.402-.934-.13-1.876.182-2.543.846-.667.663-.981 1.6-.85 2.529v4.205h5.506v3.508h-5.505V32.26h-4.12V17.328H87.77l-.013-3.508zM50.265 41.433h8.804l6.893 21.975h2.611v3.549h-5.708l-2.288-7.647H52.23l-2.235 7.647h-5.708v-3.55h2.599l5.801-18.533h-2.423v-3.441zm2.922 14.476h6.394l-3.15-11.115-3.244 11.115zM75.829 66.957h-4.2v-22.03h-2.692v-3.494h9.678c6.287 0 9.033 2.852 9.033 7.352 0 4.994-3.285 7.766-8.723 7.766h-3.096v10.406zm2.786-13.954c3.366 0 4.833-1.808 4.833-4.259 0-2.45-1.548-3.816-4.886-3.816h-2.693v8.035l2.746.04zM95.765 63.448L98.74 63.448 98.74 66.957 88.604 66.957 88.604 63.448 91.538 63.448 91.538 44.928 88.604 44.928 88.604 41.433 98.74 41.433 98.74 44.928 95.765 44.928z" transform="translate(-873 -331) translate(873 331) translate(0 5.74)"/>
                </g>
            </g>
        </g>
    </g>
</svg>
