<?xml version="1.0" encoding="UTF-8"?>
<svg width="20px" height="20px" viewBox="0 0 20 20" version="1.1" xmlns="http://www.w3.org/2000/svg" xmlns:xlink="http://www.w3.org/1999/xlink">
    <!-- Generator: Sketch 52.5 (67469) - http://www.bohemiancoding.com/sketch -->
    <title>alert-info</title>
    <desc>Created with Sketch.</desc>
    <g id="Page-1" stroke="none" stroke-width="1" fill="none" fill-rule="evenodd">
        <g id="alert-info" fill="#4119A7">
            <path d="M10,6.3e-05 C15.522664,6.3e-05 20.000152,4.477128 20.000152,9.999957 C20.000152,15.52297 15.522664,20.000012 10,20.000012 C4.477048,20.000012 -0.000128,15.52297 -0.000128,9.999957 C-0.000128,4.477128 4.477048,6.3e-05 10,6.3e-05 Z M10,7.000021 C9.447496,7.000021 8.999968,7.4479 8.999968,8.000107 L8.999968,14.999766 C8.999968,15.552272 9.447496,15.999852 10,15.999852 C10.551904,15.999852 11.000056,15.552272 11.000056,14.999766 L11.000056,8.000107 C11.000056,7.4479 10.551904,7.000021 10,7.000021 Z M10,2.999999 C9.447808,2.999999 8.999968,3.447717 8.999968,3.999947 C8.999968,4.552292 9.447808,5.00001 10,5.00001 C10.552504,5.00001 11.000056,4.552292 11.000056,3.999947 C11.000056,3.447717 10.552504,2.999999 10,2.999999 Z" id="Combined-shape-969"></path>
        </g>
        <g id="00" transform="translate(-441.000000, -214.000000)"></g>
    </g>
</svg>