<?xml version="1.0" encoding="UTF-8"?>
<svg width="22px" height="22px" viewBox="0 0 22 22" version="1.1" xmlns="http://www.w3.org/2000/svg" xmlns:xlink="http://www.w3.org/1999/xlink">
    <!-- Generator: Sketch 52.5 (67469) - http://www.bohemiancoding.com/sketch -->
    <title>alert-error</title>
    <desc>Created with Sketch.</desc>
    <g id="Page-1" stroke="none" stroke-width="1" fill="none" fill-rule="evenodd">
        <g id="alert-error" fill="#4119A7">
            <path d="M10.999194,0.0001 C17.074952,0.0001 22.000886,4.924875 22.000886,11.000075 C22.000886,17.074825 17.074952,22.00005 10.999194,22.00005 C4.925854,22.00005 -8e-05,17.074825 -8e-05,11.000075 C-8e-05,4.924875 4.925854,0.0001 10.999194,0.0001 Z M10.999194,4.000125 C10.447292,4.000125 10.000352,4.447825 10.000352,5.00005 L10.000352,12 C10.000352,12.552375 10.447292,13.000075 10.999194,13.000075 C11.552292,13.000075 11.999232,12.552375 11.999232,12 L11.999232,5.00005 C11.999232,4.447825 11.552292,4.000125 10.999194,4.000125 Z M10.999194,16.000025 C10.447292,16.000025 10.000352,16.44775 10.000352,17.0001 C10.000352,17.552325 10.447292,18.000025 10.999194,18.000025 C11.552292,18.000025 11.999232,17.552325 11.999232,17.0001 C11.999232,16.44775 11.552292,16.000025 10.999194,16.000025 Z" id="Combined-shape-788"></path>
        </g>
        <g id="00" transform="translate(-440.000000, -98.000000)"></g>
    </g>
</svg>