<?xml version="1.0" encoding="UTF-8"?>
<svg width="22px" height="22px" viewBox="0 0 22 22" version="1.1" xmlns="http://www.w3.org/2000/svg" xmlns:xlink="http://www.w3.org/1999/xlink">
    <!-- Generator: Sketch 52.5 (67469) - http://www.bohemiancoding.com/sketch -->
    <title>alert-check</title>
    <desc>Created with Sketch.</desc>
    <g id="Page-1" stroke="none" stroke-width="1" fill="none" fill-rule="evenodd">
        <g id="alert-check" fill="#4119A7">
            <path d="M19.9368595,4.58540227 L11.9680514,12.5537907 L7.877544,8.464525 C7.488662,8.07405 6.853742,8.07405 6.463664,8.464525 C6.074756,8.855125 6.074756,9.48845 6.463664,9.87905 L11.120706,14.535475 C11.1914294,14.6058297 11.2699453,14.6635073 11.3534315,14.7085078 C11.7642563,15.0854341 12.4024435,15.0752899 12.799864,14.678075 L21.0205315,6.45659957 C21.6494404,7.84159748 21.999678,9.37999168 21.999678,11.000175 C21.999678,17.075075 17.075252,21.9997 10.999494,21.9997 C4.923424,21.9997 0.00022,17.075075 0.00022,11.000175 C0.00022,4.924975 4.923424,-0.00025 10.999494,-0.00025 C14.6812511,-0.00025 17.9402327,1.80832038 19.9368595,4.58540227 Z" id="Combined-shape-784"></path>
        </g>
        <g id="00" transform="translate(-440.000000, -161.000000)"></g>
    </g>
</svg>