<?xml version="1.0" encoding="UTF-8"?>
<svg width="30px" height="30px" viewBox="0 0 30 30" version="1.1" xmlns="http://www.w3.org/2000/svg" xmlns:xlink="http://www.w3.org/1999/xlink">
    <!-- Generator: Sketch 52.5 (67469) - http://www.bohemiancoding.com/sketch -->
    <title>ic-checkbox-s</title>
    <desc>Created with Sketch.</desc>
    <g id="Page-1" stroke="none" stroke-width="1" fill="none" fill-rule="evenodd">
        <g id="ic-checkbox-s">
            <g id="checkbox_s-_sel" transform="translate(-2.000000, -2.000000)">
                <path d="M7.00009,1.999734 L27.000692,1.999734 C29.760812,1.999734 32.00029,4.238355 32.00029,7.00029 L32.00029,27.00027 C32.00029,29.761776 29.760812,31.99977 27.000692,31.99977 L7.00009,31.99977 C4.23878,31.99977 1.999268,29.761776 1.999268,27.00027 L1.999268,7.00029 C1.999268,4.238355 4.23878,1.999734 7.00009,1.999734 Z" id="Rounded-Rectangle-7-copy" fill="#4119A7"></path>
                <path d="M24.716067,13.707998 L16.738879,21.685562 C16.434195,21.99128 15.98456,22.052936 15.612806,21.884054 C15.478362,21.835908 15.350549,21.76469 15.242572,21.656708 L10.343099,16.75745 C9.951813,16.366822 9.951813,15.73398 10.343099,15.342904 C10.734404,14.952444 11.366914,14.952444 11.757003,15.342904 L15.994174,19.580144 L23.291352,12.282826 C23.686248,11.889314 24.324781,11.889314 24.716067,12.282826 C25.110963,12.67617 25.110963,13.314486 24.716067,13.707998 Z" id="Rounded-Rectangle-9-copy" fill="#FFFFFF"></path>
            </g>
        </g>
        <g id="00" transform="translate(-673.000000, -97.000000)"></g>
    </g>
</svg>