<?xml version="1.0" encoding="UTF-8"?>
<svg width="38px" height="38px" viewBox="0 0 38 38" version="1.1" xmlns="http://www.w3.org/2000/svg" xmlns:xlink="http://www.w3.org/1999/xlink">
    <!-- Generator: Sketch 52.5 (67469) - http://www.bohemiancoding.com/sketch -->
    <title>ic-checkbox-l-nor</title>
    <desc>Created with Sketch.</desc>
    <g id="Page-1" stroke="none" stroke-width="1" fill="none" fill-rule="evenodd">
        <g id="ic-checkbox-l-nor">
            <g id="checkbox_l" transform="translate(-2.000000, -1.000000)">
                <path d="M7.000266,1.99999 C4.79099375,1.99999 2.999452,3.79109972 2.999452,5.99994 L2.999452,33.999947 C2.999452,36.208931 4.79097346,38.000061 7.000266,38.000061 L35.000574,38.000061 C37.2089932,38.000061 39.000212,36.2088803 39.000212,33.999947 L39.000212,5.99994 C39.000212,3.7911504 37.2089729,1.99999 35.000574,1.99999 L7.000266,1.99999 Z" id="Rounded-Rectangle-7-Copy" stroke="#BFBFBF" stroke-width="2" fill="#FFFFFF"></path>
                <path d="M30.716904,15.708176 L19.740504,26.685696 C19.434024,26.991408 18.984672,27.053072 18.612936,26.884336 C18.477888,26.836048 18.350064,26.76496 18.242088,26.656832 L11.343144,19.757568 C10.953048,19.367104 10.953048,18.733632 11.343144,18.343168 C11.733216,17.95256 12.367248,17.95256 12.757344,18.343168 L18.993384,24.580128 L29.292192,14.283008 C29.684688,13.889504 30.32352,13.889504 30.716904,14.283008 C31.110624,14.676512 31.110624,15.314832 30.716904,15.708176 Z" id="Rounded-Rectangle-9" fill="#BFBFBF"></path>
            </g>
        </g>
        <g id="00" transform="translate(-566.000000, -176.000000)"></g>
    </g>
</svg>