<?xml version="1.0" encoding="UTF-8"?>
<svg width="38px" height="38px" viewBox="0 0 38 38" version="1.1" xmlns="http://www.w3.org/2000/svg" xmlns:xlink="http://www.w3.org/1999/xlink">
    <!-- Generator: Sketch 52.5 (67469) - http://www.bohemiancoding.com/sketch -->
    <title>ic-checkbox-l</title>
    <desc>Created with Sketch.</desc>
    <g id="Page-1" stroke="none" stroke-width="1" fill="none" fill-rule="evenodd">
        <g id="ic-checkbox-l">
            <g id="checkbox_l_sel" transform="translate(-2.000000, -1.000000)">
                <path d="M7.000266,1.99999 C4.79099375,1.99999 2.999452,3.79109972 2.999452,5.99994 L2.999452,33.999947 C2.999452,36.208931 4.79097346,38.000061 7.000266,38.000061 L35.000574,38.000061 C37.2089932,38.000061 39.000212,36.2088803 39.000212,33.999947 L39.000212,5.99994 C39.000212,3.7911504 37.2089729,1.99999 35.000574,1.99999 L7.000266,1.99999 Z" id="Rounded-Rectangle-7" stroke="#BFBFBF" stroke-width="2" fill="#FFFFFF"></path>
                <path d="M30.71712,15.708176 L19.739496,26.685229 C19.434216,26.990651 18.985488,27.052616 18.61404,26.884486 C18.478704,26.836342 18.350256,26.765112 18.24228,26.656839 L11.342136,19.7571 C10.95324,19.366644 10.95324,18.733632 11.342136,18.343176 C11.733432,17.95255 12.36744,17.95255 12.757536,18.343176 L18.9936,24.580119 L29.291208,14.283015 C29.684904,13.889057 30.323424,13.889057 30.71712,14.283015 C31.110816,14.676514 31.110816,15.314218 30.71712,15.708176 Z" id="Rounded-Rectangle-9" fill="#4119A7"></path>
            </g>
        </g>
        <g id="00" transform="translate(-566.000000, -97.000000)"></g>
    </g>
</svg>