<svg xmlns="http://www.w3.org/2000/svg" xmlns:xlink="http://www.w3.org/1999/xlink" width="15" height="15" viewBox="0 0 15 15">
    <defs>
        <path id="a" d="M0 0h15v15H0z"/>
    </defs>
    <g fill="none" fill-rule="evenodd">
        <mask id="b" fill="#fff">
            <use xlink:href="#a"/>
        </mask>
        <path fill="#000" d="M7.5 0C3.358 0 0 3.442 0 7.691c0 3.399 2.15 6.278 5.13 7.296.374.07.512-.167.512-.371 0-.184-.007-.667-.01-1.31-2.086.466-2.528-1.03-2.528-1.03-.342-.888-.834-1.126-.834-1.126-.68-.479.05-.469.05-.469.754.054 1.149.794 1.149.794.67 1.175 1.754.837 2.183.64.067-.496.26-.838.475-1.028-1.664-.195-3.415-.854-3.415-3.8 0-.841.291-1.528.77-2.064-.077-.194-.335-.977.074-2.035 0 0 .63-.208 2.062.787.6-.171 1.24-.255 1.879-.258a7.044 7.044 0 0 1 1.878.258c1.433-.995 2.06-.787 2.06-.787.408 1.058.15 1.841.073 2.035.479.54.77 1.226.77 2.063 0 2.953-1.755 3.603-3.425 3.794.268.238.509.706.509 1.423 0 1.028-.01 1.858-.01 2.11 0 .204.133.445.515.368C12.854 13.966 15 11.087 15 7.69 15 3.442 11.642 0 7.5 0" mask="url(#b)"/>
    </g>
</svg>
